<svg width="16" height="17" viewBox="0 0 16 17" fill="none" xmlns="http://www.w3.org/2000/svg">
<g clip-path="url(#clip0_4_60)">
<path d="M16 8.54899C16 4.10299 12.418 0.498993 7.99999 0.498993C3.57999 0.499993 -0.00201416 4.10299 -0.00201416 8.54999C-0.00201416 12.567 2.92399 15.897 6.74799 16.501V10.876H4.71799V8.54999H6.74999V6.77499C6.74999 4.75799 7.94499 3.64399 9.77199 3.64399C10.648 3.64399 11.563 3.80099 11.563 3.80099V5.78099H10.554C9.56099 5.78099 9.25099 6.40199 9.25099 7.03899V8.54899H11.469L11.115 10.875H9.24999V16.5C13.074 15.896 16 12.566 16 8.54899Z" fill="#6725EA"/>
</g>
<defs>
<clipPath id="clip0_4_60">
<rect width="16" height="16" fill="white" transform="translate(0 0.5)"/>
</clipPath>
</defs>
</svg>
